 <svg  version="1.0" xmlns="http://www.w3.org/2000/svg"  width="900.000000pt" height="390.000000pt" viewBox="0 0 900.000000 390.000000"  preserveAspectRatio="xMidYMid meet">  <g transform="translate(0.000000,390.000000) scale(0.100000,-0.100000)" fill="#fefbfb" stroke="none"> <path d="M1303 3810 c-40 -16 -29 -51 27 -93 27 -21 61 -54 73 -75 60 -94 127 -222 127 -240 0 -5 7 -15 15 -22 8 -7 15 -25 15 -41 0 -22 -5 -29 -20 -29 -11 0 -23 6 -26 13 -6 17 -133 80 -194 98 -26 7 -125 14 -237 16 -160 4 -197 2 -222 -11 -16 -9 -39 -16 -50 -16 -11 0 -32 -7 -48 -14 -15 -8 -35 -18 -43 -21 -8 -3 -28 -14 -45 -25 -16 -11 -39 -24 -50 -30 -52 -26 -116 -74 -210 -155 -80 -69 -85 -74 -85 -97 0 -34 45 -32 122 5 98 46 214 76 383 97 44 5 98 14 120 19 22 6 78 13 124 16 47 4 118 13 159 21 41 8 98 14 127 14 30 0 56 4 59 9 3 5 33 9 67 10 34 0 77 3 95 7 26 5 34 3 34 -9 0 -8 21 -31 46 -50 45 -35 49 -36 108 -30 33 3 69 10 79 15 24 13 22 -9 -8 -57 -14 -22 -25 -43 -25 -47 0 -11 71 -92 95 -108 12 -8 58 -38 101 -67 122 -79 221 -162 270 -226 24 -31 44 -61 44 -66 0 -4 9 -20 21 -35 13 -16 19 -37 17 -55 l-3 -30 -56 37 c-61 40 -210 172 -322 284 -37 37 -89 79 -117 93 -75 38 -131 32 -87 -9 12 -12 38 -42 57 -66 37 -48 229 -252 243 -258 4 -2 25 -20 45 -39 51 -48 132 -110 232 -178 47 -32 111 -79 142 -106 44 -38 64 -49 91 -49 27 0 36 5 45 25 7 14 12 33 12 41 0 18 -46 115 -81 169 -14 22 -29 47 -32 55 -4 8 -16 29 -27 45 -11 17 -23 37 -27 45 -27 57 -120 178 -189 246 -82 80 -254 196 -311 210 -16 4 -32 10 -38 14 -5 5 -23 10 -40 12 -22 2 -30 8 -30 23 0 16 11 22 60 31 33 7 87 17 120 24 135 27 214 41 285 49 41 5 91 12 110 16 20 3 87 7 149 8 99 2 115 5 127 22 19 25 18 38 -6 68 -51 65 -293 134 -435 124 -74 -5 -170 -22 -220 -39 -16 -5 -46 -14 -65 -18 -93 -22 -196 -74 -252 -127 -20 -20 -41 -32 -47 -29 -6 4 -10 49 -10 115 1 61 -4 118 -10 129 -6 12 -11 29 -11 40 0 25 -33 97 -68 146 -15 22 -59 61 -97 88 -61 42 -90 54 -165 73 -8 2 -25 0 -37 -5z"/> <path d="M4140 3683 c-114 -9 -247 -124 -328 -283 -13 -25 -32 -58 -42 -75 -28 -45 -51 -89 -136 -258 -8 -16 -14 -34 -14 -41 0 -7 -11 -23 -25 -36 -28 -26 -69 -35 -240 -50 -125 -12 -205 -44 -269 -108 -31 -30 -36 -42 -36 -82 0 -39 5 -51 33 -77 42 -39 165 -103 200 -103 9 0 18 -4 22 -9 3 -6 27 -13 53 -17 26 -3 55 -11 65 -16 20 -10 80 -23 202 -42 44 -6 86 -16 93 -20 7 -4 52 -12 100 -17 165 -17 307 -36 322 -42 24 -10 392 -27 433 -20 41 6 52 33 13 33 -25 0 -178 46 -291 87 -87 32 -130 50 -267 112 -37 17 -70 31 -73 31 -8 0 -160 63 -243 101 -34 16 -68 29 -75 29 -7 0 -21 6 -32 13 -33 22 -243 76 -298 78 -18 0 -41 4 -52 8 -16 6 -14 9 15 15 19 4 91 11 160 16 68 6 138 12 155 15 16 3 53 1 80 -5 28 -6 68 -15 90 -20 22 -4 54 -12 70 -18 17 -6 57 -18 90 -27 104 -30 159 -47 190 -59 17 -7 77 -27 135 -45 58 -19 120 -40 138 -47 18 -8 46 -14 62 -14 16 0 44 -6 62 -14 53 -22 192 -40 350 -43 171 -5 188 0 188 53 0 24 4 34 13 31 6 -2 11 -13 10 -25 -2 -17 5 -21 40 -25 68 -9 107 -19 107 -27 0 -8 21 -19 120 -64 51 -23 83 -75 82 -133 -1 -32 -6 -50 -18 -56 -9 -5 -26 -19 -38 -31 -20 -20 -29 -21 -263 -21 -221 0 -267 -4 -250 -21 9 -9 202 -26 277 -25 234 4 297 26 345 120 32 64 -12 144 -120 215 -29 20 -60 36 -68 36 -8 0 -20 6 -26 14 -6 8 -22 16 -34 19 -12 3 -47 14 -77 26 -30 12 -67 21 -82 21 -36 0 -46 20 -53 116 -7 98 -32 246 -51 299 -8 23 -14 50 -14 61 0 12 -12 52 -26 90 -14 38 -28 79 -31 91 -3 12 -11 28 -19 34 -8 6 -14 16 -14 21 0 16 -63 68 -107 88 -24 11 -89 23 -152 30 -123 12 -133 14 -176 45 -76 55 -165 77 -275 68z m136 -57 c5 -8 23 -18 38 -22 15 -3 30 -13 33 -20 3 -8 11 -14 17 -14 19 0 117 -49 155 -77 29 -22 44 -26 105 -26 79 0 156 -24 191 -60 12 -12 29 -49 38 -82 10 -33 22 -73 29 -90 6 -16 12 -46 15 -65 4 -34 25 -115 45 -175 20 -59 19 -111 -4 -131 -18 -17 -38 -19 -182 -19 -88 1 -210 2 -270 5 -78 3 -111 0 -114 -8 -2 -8 -9 -8 -25 2 -12 8 -60 17 -107 21 -47 3 -107 12 -135 20 -27 7 -104 23 -170 35 -66 12 -137 28 -158 36 -20 8 -53 14 -72 14 -39 0 -55 18 -32 35 10 7 17 26 17 47 0 20 7 41 15 48 8 7 15 17 15 22 0 15 59 136 99 201 20 34 40 69 44 77 36 79 150 205 197 216 14 4 31 11 37 17 7 5 27 7 45 3 18 -3 40 -1 48 4 19 13 72 4 86 -14z m-906 -841 c42 -12 95 -34 130 -54 26 -14 60 -32 103 -52 23 -11 50 -25 60 -30 10 -6 37 -20 60 -31 23 -12 58 -34 78 -50 20 -15 42 -28 48 -28 6 0 11 -4 11 -10 0 -17 -52 -11 -140 15 -46 14 -93 25 -104 25 -25 0 -277 72 -329 94 -65 27 -108 66 -105 95 6 51 73 61 188 26z m1521 4 c14 -22 11 -26 -23 -46 -25 -14 -50 -18 -98 -16 -119 4 -234 20 -295 42 -32 11 -61 21 -63 21 -2 0 -1 4 2 8 2 4 109 7 236 6 184 -1 234 -5 241 -15z"/> <path d="M4730 2955 c-16 -19 -3 -57 18 -53 22 4 28 53 8 61 -8 3 -20 0 -26 -8z"/> <path d="M4820 2946 c0 -20 27 -39 45 -32 8 3 15 15 15 26 0 16 -7 20 -30 20 -19 0 -30 -5 -30 -14z"/> <path d="M4940 3513 c0 -10 14 -47 32 -83 17 -36 35 -72 39 -81 7 -15 34 -113 49 -179 5 -19 13 -53 18 -75 6 -22 15 -76 22 -120 19 -136 17 -131 61 -144 23 -7 43 -10 46 -7 3 3 -1 31 -10 63 -9 32 -26 103 -38 157 -41 194 -100 365 -141 411 -7 8 -24 28 -38 45 -27 34 -40 38 -40 13z"/> <path d="M1373 3179 c-6 -6 -32 -13 -57 -15 -26 -2 -68 -10 -94 -19 -82 -27 -272 -127 -327 -172 -5 -5 -37 -29 -70 -55 -140 -107 -239 -240 -353 -472 -20 -41 -22 -53 -13 -74 11 -22 16 -24 57 -18 31 4 63 19 102 48 32 24 65 48 74 53 27 16 193 129 198 135 10 11 117 80 158 101 12 7 22 16 22 21 0 4 5 8 10 8 10 0 69 38 80 51 3 3 30 23 60 44 30 21 64 48 75 60 28 29 50 36 96 29 29 -5 39 -11 39 -25 0 -11 -4 -19 -10 -19 -16 0 -12 -32 8 -64 11 -19 31 -33 57 -40 l40 -12 6 -84 c3 -47 11 -165 18 -262 6 -98 15 -208 21 -245 5 -38 10 -97 10 -133 0 -91 26 -220 48 -236 53 -41 81 -20 112 83 12 37 28 88 36 113 8 25 14 55 14 68 0 13 5 32 11 44 10 19 16 55 38 258 11 97 8 193 -9 290 -14 78 -49 181 -66 195 -7 6 -14 19 -16 29 -5 31 -27 30 -35 -1 -11 -42 -8 -185 5 -209 6 -11 12 -56 14 -100 3 -83 -9 -274 -18 -283 -2 -3 -14 5 -26 17 -18 17 -22 32 -20 69 1 25 -2 51 -7 57 -5 6 -12 45 -15 86 -3 41 -6 84 -7 95 -1 11 -12 52 -24 90 -14 44 -21 84 -18 108 4 31 2 37 -13 37 -25 0 -75 34 -88 59 -14 26 -122 101 -145 101 -10 0 -24 7 -31 15 -20 25 3 62 50 81 45 18 46 21 25 51 -10 14 -12 24 -5 28 12 7 13 25 2 25 -4 0 -13 -5 -19 -11z m-106 -166 c3 -64 -4 -77 -55 -94 -20 -6 -51 -22 -69 -35 -17 -13 -38 -24 -45 -24 -8 0 -29 -16 -48 -35 -19 -19 -37 -35 -42 -35 -7 0 -59 -32 -108 -67 -14 -10 -45 -28 -69 -41 -25 -12 -53 -30 -63 -39 -17 -15 -20 -15 -28 -3 -16 24 -13 30 53 97 91 95 242 210 320 245 26 11 57 33 68 47 18 23 44 37 74 40 6 1 11 -24 12 -56z"/> <path d="M1340 2786 c-25 -19 -54 -67 -97 -156 -96 -200 -122 -258 -138 -308 -10 -29 -21 -55 -26 -58 -5 -3 -9 -14 -9 -24 0 -10 -8 -33 -17 -52 -26 -52 -29 -59 -47 -123 -9 -33 -26 -78 -36 -100 -10 -22 -21 -51 -23 -65 -3 -14 -15 -59 -27 -100 -11 -41 -24 -93 -29 -115 -4 -23 -11 -46 -15 -53 -8 -13 -17 -62 -36 -201 -6 -40 -17 -86 -25 -102 -8 -15 -15 -55 -15 -88 0 -33 -5 -70 -10 -83 -6 -13 -14 -63 -20 -113 -10 -95 -34 -266 -49 -350 -5 -27 -10 -135 -11 -240 0 -104 -6 -207 -11 -229 -7 -24 -7 -42 -1 -48 12 -12 652 -12 665 1 10 10 6 62 -11 131 -30 124 -42 207 -46 335 -3 77 -10 210 -17 295 -27 377 -6 781 62 1203 10 65 19 134 19 152 0 35 12 104 35 195 8 30 17 92 20 137 6 79 5 81 -17 88 -28 9 -38 23 -38 52 0 28 -11 35 -30 19z m20 -185 c0 -34 -4 -42 -36 -60 -35 -21 -64 -27 -64 -14 0 5 90 109 98 112 1 1 2 -17 2 -38z m-41 -160 c11 -7 12 -13 4 -23 -18 -22 -31 -88 -37 -187 -6 -107 1 -98 -124 -162 -104 -53 -117 -45 -68 37 20 32 48 89 62 126 14 38 30 70 35 74 5 3 9 20 9 37 1 35 11 52 54 85 31 24 44 26 65 13z m-56 -431 c-1 -8 -11 -53 -22 -100 -13 -58 -18 -115 -17 -182 l2 -98 -35 -22 c-20 -12 -56 -32 -81 -46 -25 -13 -75 -46 -112 -73 -79 -57 -104 -63 -94 -21 4 15 15 43 25 62 10 20 22 56 26 80 4 25 18 83 31 129 13 46 24 100 24 120 0 30 7 44 39 74 22 21 60 47 85 58 25 11 48 24 52 30 10 16 79 7 77 -11z m-48 -500 c4 -6 1 -27 -6 -48 -16 -49 -16 -187 1 -207 17 -21 -12 -53 -78 -85 -26 -13 -52 -29 -59 -34 -22 -19 -37 -31 -79 -58 -23 -14 -59 -43 -80 -63 -50 -47 -83 -69 -91 -62 -3 4 4 40 16 82 12 41 25 109 28 150 5 62 12 85 36 121 77 116 283 251 312 204z m9 -437 c-14 -43 -11 -273 4 -312 16 -45 3 -65 -73 -111 -94 -58 -165 -113 -265 -209 -52 -49 -101 -90 -109 -91 -11 0 -12 11 -7 48 22 160 25 201 20 240 -10 68 34 154 141 271 97 108 212 190 264 191 32 0 33 -1 25 -27z m21 -570 c0 -49 2 -122 5 -162 l5 -75 -40 -8 c-44 -10 -366 -27 -378 -21 -14 8 24 63 107 153 75 82 237 199 276 200 26 0 26 0 25 -87z"/> <path d="M5530 2593 c1 -5 9 -26 20 -48 13 -28 19 -62 20 -111 0 -64 -3 -75 -32 -115 -49 -69 -88 -93 -198 -120 -84 -21 -309 -26 -390 -8 -25 5 -71 13 -102 18 -57 9 -77 15 -174 45 -39 12 -94 16 -220 16 -93 0 -198 5 -234 11 -36 5 -108 14 -160 19 -52 6 -113 14 -135 20 -22 5 -60 10 -85 10 -25 0 -61 5 -80 11 -19 6 -60 15 -90 19 -78 10 -180 30 -215 42 -16 5 -52 14 -79 19 -27 4 -54 13 -60 19 -5 5 -18 10 -29 10 -18 0 -91 29 -132 52 -57 32 -117 59 -122 55 -14 -15 95 -102 171 -138 230 -107 815 -212 1281 -229 162 -6 231 -12 262 -24 96 -36 286 -66 419 -66 205 1 294 20 390 85 92 63 130 182 90 280 -25 60 -80 135 -98 135 -10 0 -18 -3 -18 -7z"/> <path d="M7060 2423 c-14 -2 -41 -11 -60 -20 -19 -9 -51 -24 -70 -32 -19 -9 -37 -18 -40 -21 -3 -3 -18 -14 -34 -24 -44 -28 -116 -97 -116 -111 0 -23 -41 -65 -63 -65 -12 0 -41 -10 -64 -22 l-42 -22 -28 20 c-51 38 -235 40 -333 3 -111 -41 -209 -113 -225 -167 -8 -29 -53 -82 -69 -82 -7 0 -22 -10 -34 -23 -17 -18 -20 -29 -14 -52 7 -26 14 -30 48 -33 46 -4 74 -26 74 -58 0 -13 14 -43 31 -67 l31 -44 -37 -52 c-35 -48 -39 -51 -81 -51 -31 0 -58 9 -92 30 -27 17 -58 30 -69 30 -10 0 -25 6 -31 13 -9 8 -55 12 -157 12 -102 0 -148 -4 -157 -12 -6 -7 -21 -13 -31 -13 -30 0 -129 -57 -171 -98 -46 -44 -81 -118 -90 -187 -7 -56 8 -168 24 -173 5 -2 10 -10 10 -17 0 -24 114 -128 168 -152 29 -14 49 -29 46 -35 -4 -6 -45 -7 -113 -3 -161 11 -151 21 -151 -152 l0 -145 42 -41 c42 -41 42 -41 122 -41 65 -1 87 -5 111 -22 75 -51 210 -73 345 -56 205 27 351 143 379 301 25 141 -32 255 -176 350 -26 18 -39 32 -33 36 6 4 53 5 103 3 l92 -3 3 152 c2 145 2 153 -18 163 -11 6 -30 8 -41 5 -20 -7 -21 -14 -19 -114 2 -58 2 -112 1 -118 -1 -10 -28 -13 -100 -13 -116 0 -127 3 -146 40 -24 47 -87 70 -192 70 -77 0 -94 -3 -117 -21 -21 -16 -26 -28 -24 -52 4 -41 58 -72 139 -81 32 -4 61 -11 64 -16 4 -6 25 -10 48 -10 87 0 202 -51 267 -120 67 -71 86 -159 57 -259 -17 -55 -91 -139 -148 -168 -117 -58 -116 -58 -269 -57 l-145 0 -68 37 c-61 33 -75 37 -141 37 -47 0 -77 4 -83 13 -5 7 -8 61 -5 124 l4 113 58 0 c31 0 84 3 116 6 l59 6 25 -38 c39 -60 90 -84 182 -84 59 0 85 5 111 20 84 50 64 113 -46 142 -62 16 -145 34 -225 47 -24 5 -48 13 -54 19 -7 7 -18 12 -25 12 -14 0 -103 60 -131 88 -9 10 -28 39 -41 66 -32 66 -27 171 12 232 45 72 134 131 232 155 134 31 277 16 382 -42 31 -17 68 -29 89 -29 31 0 36 -3 31 -20 -4 -14 0 -20 11 -20 23 1 62 35 62 54 0 9 16 20 40 27 22 7 42 20 45 29 3 9 17 22 32 29 l26 12 -33 17 c-30 15 -77 80 -96 132 -3 8 -15 35 -26 59 -23 49 -20 131 7 161 8 9 15 20 15 25 0 16 79 83 122 103 65 30 194 55 278 54 l75 -1 42 -48 c24 -26 43 -56 43 -65 0 -9 5 -20 11 -24 8 -4 10 11 8 50 l-4 57 48 21 c46 20 48 20 67 3 11 -10 20 -24 20 -30 0 -7 7 -18 15 -25 12 -10 15 -9 15 6 0 9 -5 32 -11 49 -10 28 -9 36 15 73 35 56 87 104 141 131 25 12 47 26 50 32 4 5 24 9 45 9 27 0 42 6 49 18 8 14 24 17 96 17 70 0 90 -3 102 -17 9 -10 20 -18 24 -18 5 0 18 -8 30 -17 43 -37 76 -127 85 -233 5 -63 4 -78 -10 -89 -9 -7 -16 -18 -16 -23 0 -5 -15 -22 -32 -39 -23 -20 -28 -29 -16 -29 9 0 18 4 20 8 2 4 19 20 38 34 l35 27 48 -25 c59 -29 72 -30 131 -4 35 16 46 26 46 44 0 18 -9 25 -53 39 -30 9 -64 17 -76 17 -13 0 -36 8 -52 17 -26 16 -29 23 -29 68 0 30 -6 59 -15 71 -22 29 -18 51 15 76 32 23 41 67 17 86 -7 6 -45 10 -84 9 -57 -2 -75 2 -91 17 -16 14 -39 19 -104 20 -46 2 -94 1 -108 -1z m-1303 -1226 l26 -26 -24 -6 c-13 -3 -44 1 -68 10 -24 8 -61 15 -82 15 -39 0 -55 12 -43 31 4 8 34 10 86 7 69 -4 83 -8 105 -31z m-217 -338 c136 -29 157 -35 160 -44 5 -17 -42 -35 -91 -35 -34 0 -55 7 -80 25 -19 14 -42 28 -51 31 -10 4 -18 15 -18 26 0 15 4 18 18 13 9 -3 37 -11 62 -16z"/> <path d="M4642 2378 c5 -15 67 -18 71 -3 1 6 -15 11 -37 13 -28 3 -37 0 -34 -10z"/> <path d="M4738 2363 c-42 -11 -9 -33 48 -33 22 0 34 5 34 14 0 23 -37 31 -82 19z"/> <path d="M7003 2310 c-3 -11 -9 -20 -14 -20 -5 0 -9 -5 -9 -11 0 -6 -7 -26 -16 -45 -9 -19 -14 -37 -11 -41 4 -3 11 6 16 20 5 14 15 28 20 32 6 3 11 14 11 24 0 10 7 24 15 31 18 15 20 30 4 30 -6 0 -13 -9 -16 -20z"/> <path d="M7130 2276 c-5 -13 -14 -27 -19 -31 -6 -3 -11 -15 -11 -25 0 -10 -4 -20 -8 -22 -9 -4 -52 -84 -52 -98 0 -20 20 -9 26 15 3 13 12 29 20 36 8 6 14 20 14 29 0 10 4 20 8 22 7 3 52 83 52 93 0 15 -22 1 -30 -19z"/> <path d="M6927 2164 c-4 -4 -7 -14 -7 -23 0 -11 3 -12 11 -4 6 6 10 16 7 23 -2 6 -7 8 -11 4z"/> <path d="M7016 2064 c-9 -22 3 -32 14 -14 12 19 12 30 1 30 -5 0 -12 -7 -15 -16z"/> <path d="M669 2038 c-24 -18 -31 -19 -64 -8 -52 17 -64 2 -37 -44 l21 -35 -26 -21 c-14 -11 -30 -20 -35 -20 -5 0 -8 -10 -6 -22 2 -19 10 -24 41 -26 35 -3 37 -5 37 -36 0 -39 24 -66 43 -47 6 6 16 31 22 54 l10 42 50 0 c65 0 74 25 20 57 -35 20 -37 24 -32 61 5 39 1 67 -12 66 -3 0 -18 -9 -32 -21z"/> <path d="M6271 2022 c-12 -23 -17 -43 -12 -46 12 -8 21 4 21 29 0 11 5 26 12 33 6 6 9 14 6 18 -4 3 -16 -12 -27 -34z"/> <path d="M6745 1996 c-16 -7 -53 -18 -82 -25 -55 -14 -61 -21 -61 -80 -1 -81 -109 -234 -217 -305 -43 -29 -66 -38 -108 -40 -63 -3 -77 -10 -77 -39 0 -12 -7 -44 -15 -71 -22 -72 -21 -340 2 -410 56 -171 102 -246 228 -371 87 -86 139 -120 260 -170 44 -18 174 -45 219 -45 51 0 177 30 197 47 8 7 19 13 24 13 4 0 28 16 52 36 l43 36 11 -31 c6 -16 19 -33 29 -36 10 -3 20 -15 23 -25 5 -19 14 -20 171 -20 l166 0 0 400 0 400 -24 10 c-13 5 -27 18 -31 30 -6 20 -10 20 -358 18 l-351 -3 1 -149 c1 -143 2 -150 22 -158 12 -4 26 -19 31 -33 10 -26 11 -26 86 -19 71 6 76 6 72 -12 -2 -10 -26 -34 -53 -51 -46 -31 -56 -33 -132 -33 -83 0 -112 9 -168 50 -69 50 -115 166 -115 285 1 89 18 149 66 235 70 123 203 188 325 160 69 -16 91 -30 158 -102 l55 -58 163 0 163 0 0 181 0 181 -37 35 -38 34 -88 -6 c-72 -6 -92 -4 -113 9 -25 17 -64 14 -64 -6 0 -11 -58 -7 -145 12 -72 15 -191 75 -217 110 -24 33 -30 35 -73 16z m60 -101 c23 -27 50 -42 119 -66 97 -34 118 -35 355 -24 73 4 137 3 141 -2 5 -4 10 -69 11 -143 l3 -135 -132 0 -132 0 -40 46 c-22 26 -64 59 -96 75 -52 26 -67 29 -153 29 -85 -1 -102 -4 -151 -29 -167 -87 -267 -333 -214 -524 17 -65 44 -132 59 -149 5 -6 21 -26 35 -44 33 -43 60 -69 85 -80 11 -5 27 -13 35 -18 19 -12 118 -41 138 -41 26 0 142 42 142 51 0 5 6 9 13 9 28 0 134 161 121 182 -3 4 -49 8 -102 8 -152 0 -143 -7 -140 119 l3 106 302 3 303 2 5 -22 c3 -13 4 -176 3 -363 l-3 -340 -115 4 c-156 4 -154 3 -148 110 8 125 -4 144 -42 66 -21 -44 -95 -118 -135 -136 -11 -5 -27 -13 -35 -18 -33 -20 -125 -41 -179 -41 -72 0 -194 32 -277 72 -109 53 -231 180 -283 295 -5 11 -15 24 -20 28 -6 3 -11 18 -11 33 0 15 -7 36 -15 46 -8 11 -15 34 -15 50 -1 17 -7 42 -15 56 -20 36 -21 239 0 266 8 10 15 31 15 46 0 35 24 58 60 58 51 0 132 50 208 129 40 42 80 90 89 106 9 17 24 41 34 54 11 13 19 32 19 41 0 10 7 23 15 30 8 7 15 27 15 45 0 41 5 45 54 45 35 0 46 -6 71 -35z"/> <path d="M6384 1966 c-3 -14 -12 -30 -20 -37 -16 -13 -19 -39 -4 -39 5 0 12 11 16 25 3 14 10 25 14 25 11 0 20 39 9 45 -4 3 -11 -5 -15 -19z"/> <path d="M2087 1973 c-4 -3 -7 -71 -7 -149 0 -147 -1 -144 44 -181 8 -7 16 -18 18 -25 3 -7 21 -13 44 -13 l39 0 3 -382 2 -383 -25 -6 c-14 -3 -36 -3 -49 0 -14 3 -36 2 -50 -4 l-26 -10 0 -140 c0 -137 8 -180 32 -180 7 0 21 -10 33 -22 l20 -23 580 5 579 5 1 157 c0 97 4 159 10 160 6 1 12 -7 14 -18 8 -44 91 -151 164 -211 33 -28 116 -72 182 -98 67 -26 325 -26 395 0 81 30 230 109 230 122 0 7 -15 41 -34 75 -18 35 -42 79 -52 99 -26 47 -89 109 -112 109 -10 0 -23 -5 -29 -11 -6 -6 -31 -16 -55 -21 -24 -5 -61 -13 -83 -18 -22 -5 -69 -9 -105 -10 -78 0 -153 31 -158 66 l-3 21 343 -1 343 -1 -3 114 c-2 70 -9 127 -18 149 -7 19 -14 45 -14 57 0 13 -3 25 -8 27 -4 2 -22 32 -39 68 -41 83 -139 185 -222 228 -34 17 -69 32 -79 32 -10 0 -24 6 -31 13 -16 16 -262 17 -282 1 -8 -6 -28 -14 -46 -17 -65 -13 -200 -110 -243 -176 -8 -13 -20 -29 -25 -35 -19 -20 -55 -96 -55 -116 0 -10 -4 -22 -10 -25 -5 -3 -10 -21 -10 -38 0 -18 -3 -49 -6 -70 l-7 -38 -19 21 c-18 19 -28 20 -186 18 l-167 -3 -3 -119 c-1 -69 -7 -125 -14 -133 -8 -10 -38 -13 -117 -11 l-106 3 -3 388 -2 387 75 0 75 0 0 155 c0 147 -1 155 -19 155 -12 0 -25 11 -33 28 l-13 27 -326 3 c-179 1 -328 -1 -332 -5z m628 -158 l0 -120 -72 4 -73 3 0 -454 0 -455 83 -6 c124 -10 223 -8 251 4 40 18 59 75 54 165 l-3 79 140 0 140 0 0 -245 0 -245 -527 -3 c-332 -1 -536 2 -552 8 l-27 10 3 107 3 108 60 3 c32 2 65 8 72 14 10 8 13 91 13 377 0 201 -3 403 -7 449 l-6 82 -68 0 -69 0 0 115 0 115 278 3 c152 1 284 2 292 2 12 0 15 -20 15 -120z m1230 -294 c46 -11 113 -38 125 -51 3 -3 21 -16 40 -29 70 -47 170 -212 170 -282 0 -16 5 -61 11 -99 16 -92 7 -104 -71 -96 -30 3 -183 6 -340 7 l-285 1 -3 -31 c-4 -42 47 -113 111 -154 62 -40 259 -41 334 -2 15 8 36 15 45 15 9 0 20 5 23 11 9 13 42 -16 51 -45 4 -11 19 -40 35 -64 42 -62 38 -74 -28 -107 -95 -48 -124 -57 -222 -69 -98 -13 -252 -2 -296 21 -11 6 -38 19 -60 29 -49 23 -181 152 -201 196 -8 18 -18 40 -23 48 -31 55 -44 125 -38 219 13 201 107 362 258 438 35 18 82 35 104 39 22 4 47 11 55 15 19 12 140 5 205 -10z"/> <path d="M3685 1282 c-41 -28 -100 -106 -91 -120 2 -4 95 -8 205 -10 232 -3 232 -2 181 75 -45 69 -75 83 -173 83 -73 -1 -86 -4 -122 -28z m250 -64 c19 -19 -13 -28 -96 -28 -70 0 -89 3 -89 14 0 8 8 17 18 20 24 7 159 2 167 -6z"/> <path d="M6230 1940 c0 -11 5 -20 10 -20 6 0 10 9 10 20 0 11 -4 20 -10 20 -5 0 -10 -9 -10 -20z"/> <path d="M4750 1889 c-36 -18 -111 -54 -167 -82 l-103 -50 0 -103 0 -103 -67 -3 -68 -3 -3 -152 -3 -152 30 -15 c16 -9 32 -25 36 -35 4 -13 17 -21 38 -23 l32 -3 5 -235 c5 -222 7 -238 29 -280 34 -65 124 -154 189 -187 52 -26 63 -28 166 -27 103 1 116 4 179 34 38 18 71 39 74 48 4 8 1 29 -7 46 -7 17 -16 59 -21 94 -9 71 -14 82 -35 82 -8 0 -17 13 -20 30 -7 34 -25 38 -72 14 -18 -8 -42 -14 -54 -12 -23 3 -23 4 -25 193 -1 152 1 192 12 201 9 7 45 9 93 6 44 -2 82 0 85 4 2 5 6 76 8 159 l4 149 -25 6 c-15 4 -26 15 -30 30 -5 23 -12 25 -75 30 -67 5 -70 6 -69 30 1 14 3 79 5 145 3 114 2 120 -19 130 -12 5 -22 20 -24 35 -4 35 -23 35 -98 -1z m54 -99 c0 -30 -2 -106 -3 -168 -2 -62 0 -116 4 -120 3 -4 48 -9 98 -12 l92 -5 0 -115 0 -115 -92 0 c-50 0 -94 -3 -98 -6 -3 -4 -7 -106 -7 -227 -2 -293 0 -297 129 -290 l66 3 18 -50 c9 -27 18 -64 18 -82 1 -29 -4 -34 -46 -53 -62 -27 -191 -37 -262 -20 -42 10 -64 23 -106 66 -31 30 -56 65 -60 83 -4 17 -11 33 -16 36 -5 4 -9 99 -10 213 -1 114 -4 234 -8 267 l-6 60 -50 1 c-92 2 -84 -9 -79 110 2 58 6 110 10 115 3 5 30 9 59 9 70 0 75 10 75 138 0 92 1 99 23 109 12 6 61 30 109 53 48 23 91 46 94 51 3 6 16 9 27 7 20 -3 22 -9 21 -58z"/> <path d="M6192 1880 c-23 -36 -30 -76 -12 -65 6 3 10 13 10 22 0 9 7 24 16 34 9 10 14 24 12 31 -3 8 -13 -1 -26 -22z"/> <path d="M6325 1859 c-4 -11 -4 -23 0 -27 7 -7 25 17 25 36 0 20 -18 14 -25 -9z"/> <path d="M6296 1800 c-5 -14 -15 -33 -24 -43 -12 -13 -13 -20 -4 -29 9 -9 12 -8 12 4 0 9 7 24 16 32 8 9 14 26 12 38 -4 23 -4 23 -12 -2z"/> <path d="M6140 1779 c0 -11 5 -17 10 -14 6 3 10 13 10 21 0 8 -4 14 -10 14 -5 0 -10 -9 -10 -21z"/> <path d="M8142 1559 c-68 -9 -147 -34 -173 -56 -8 -7 -19 -13 -23 -13 -9 0 -80 -54 -106 -80 -47 -47 -88 -114 -126 -205 -25 -61 -25 -307 1 -367 55 -130 90 -180 187 -263 123 -105 207 -135 382 -135 127 0 132 1 236 48 62 28 137 90 182 149 84 113 110 192 109 340 0 185 -60 309 -213 447 -59 52 -86 69 -178 110 -31 13 -173 38 -203 35 -7 -1 -40 -5 -75 -10z m209 -65 c30 -8 67 -22 82 -30 16 -8 35 -14 43 -14 8 0 17 -7 20 -15 4 -8 11 -15 18 -15 11 0 121 -111 144 -146 6 -10 17 -30 22 -44 6 -14 15 -33 20 -43 34 -59 33 -267 -2 -357 -66 -173 -223 -291 -405 -306 -126 -9 -213 10 -323 71 -27 15 -127 117 -147 150 -16 26 -47 91 -64 135 -8 22 -14 75 -14 140 0 115 15 164 81 282 20 35 134 138 159 144 14 3 25 10 25 14 0 4 17 11 38 15 20 4 42 10 47 15 29 23 182 26 256 4z"/> <path d="M8153 1261 c-54 -21 -102 -64 -133 -116 -30 -53 -34 -181 -6 -240 22 -45 83 -115 101 -115 7 0 18 -7 25 -15 9 -11 33 -15 89 -15 68 0 80 3 121 31 84 58 124 133 123 234 -1 54 -19 129 -32 133 -6 2 -11 9 -11 16 0 20 -63 67 -116 88 -59 22 -105 22 -161 -1z m197 -86 c47 -24 70 -73 70 -148 0 -101 -46 -175 -128 -204 -75 -26 -143 -10 -184 42 -20 26 -23 41 -23 116 0 79 2 89 28 123 45 58 93 85 155 85 29 1 66 -6 82 -14z"/> <path d="M1436 1409 c-3 -8 -7 -30 -8 -49 -3 -31 -7 -36 -41 -45 -46 -13 -49 -24 -11 -46 26 -15 29 -20 26 -63 -4 -55 13 -61 43 -16 21 31 43 37 76 20 26 -15 38 14 15 39 -23 25 -20 36 15 72 44 45 23 78 -32 49 -16 -9 -24 -5 -49 21 -21 24 -31 29 -34 18z"/> </g> </svg> 