<?xml version="1.0" standalone="no"?>
<!DOCTYPE svg PUBLIC "-//W3C//DTD SVG 20010904//EN"
 "http://www.w3.org/TR/2001/REC-SVG-20010904/DTD/svg10.dtd">
<svg version="1.0" xmlns="http://www.w3.org/2000/svg"
 width="300.000000pt" height="253.000000pt" viewBox="0 0 300.000000 253.000000"
 preserveAspectRatio="xMidYMid meet">
<metadata>
Created by potrace 1.10, written by Peter Selinger 2001-2011
</metadata>
<g transform="translate(0.000000,253.000000) scale(0.050000,-0.050000)"
fill="#000000" stroke="none">
<path d="M2729 3842 c-105 -27 -237 -119 -288 -202 -27 -44 -56 -80 -65 -80
-9 0 -16 -13 -16 -30 0 -16 -9 -30 -20 -30 -11 0 -18 -11 -15 -25 3 -14 -6
-23 -20 -20 -14 3 -25 -5 -25 -17 0 -15 -24 -18 -68 -10 -51 10 -70 5 -80 -19
-20 -54 -14 -89 17 -89 91 0 -6 -255 -111 -291 -78 -26 -96 -60 -39 -75 122
-31 32 -69 -227 -96 -430 -44 -621 -258 -369 -414 236 -145 1023 -299 1767
-344 207 -12 347 -32 450 -62 217 -65 715 -69 820 -7 249 146 64 406 -390 549
-107 33 -104 28 -128 205 -17 120 -16 165 3 197 21 34 19 45 -13 69 -24 17
-54 86 -76 174 -87 348 -186 446 -468 467 -101 8 -176 25 -208 47 -139 97
-302 136 -431 103z m187 -72 c-6 -23 -57 -15 -86 13 -13 13 -1 18 36 14 30 -4
53 -16 50 -27z m-207 -18 c-34 -15 -108 -79 -165 -143 -118 -133 -159 -138
-59 -7 77 102 183 178 243 177 34 0 30 -6 -19 -27z m333 -87 c66 -110 202
-227 231 -198 7 6 -10 21 -36 34 -27 12 -61 40 -75 63 -43 69 12 80 117 24 54
-29 124 -48 175 -48 115 0 186 -30 186 -79 0 -36 -12 -39 -139 -34 -76 3 -134
-2 -129 -11 6 -9 29 -16 52 -16 35 0 37 -4 14 -32 -20 -24 -47 -29 -110 -21
-45 6 -89 6 -96 -2 -17 -17 -71 -28 -128 -27 -26 1 -41 -7 -34 -18 7 -11 26
-20 42 -20 17 0 25 -9 18 -20 -7 -12 -21 -15 -32 -9 -10 6 -43 16 -73 22 -30
5 -57 13 -62 17 -17 18 34 119 58 114 21 -5 20 0 -1 26 -19 23 -43 28 -88 18
-57 -12 -59 -11 -32 23 25 30 25 34 2 20 -22 -14 -26 -9 -14 21 11 30 9 33
-11 13 -39 -38 -74 -30 -128 30 -38 43 -46 46 -35 15 12 -35 10 -37 -20 -13
-41 34 -23 70 28 57 40 -11 86 30 63 56 -8 9 -4 10 10 2 15 -9 30 -2 37 17 7
17 26 31 43 31 22 0 24 -7 9 -25 -16 -19 -7 -25 34 -25 31 0 55 10 55 23 0 13
-14 19 -31 13 -28 -9 -28 -7 -2 12 45 32 53 28 102 -53z m-357 -227 c326 -111
329 -313 6 -494 l-81 -45 70 7 c39 4 90 18 115 31 25 14 55 19 67 12 11 -7 38
3 60 23 29 26 37 28 28 6 -7 -20 3 -30 30 -32 22 -2 67 -23 100 -46 33 -24 60
-36 60 -28 0 9 18 -4 41 -28 44 -48 71 -59 45 -19 -8 14 -16 30 -16 35 -1 6
-16 33 -35 61 -138 206 -43 349 228 348 337 -2 452 -141 378 -459 -11 -51 -2
-73 66 -148 67 -74 74 -90 47 -105 -53 -29 -133 3 -166 67 -22 43 -40 56 -64
46 -97 -38 -157 -32 -271 28 -102 54 -130 60 -220 50 -126 -15 -370 14 -758
89 -320 62 -327 64 -306 117 13 34 15 34 40 1 31 -43 74 -46 58 -5 -6 17 -2
30 8 30 11 0 31 -13 45 -30 14 -16 34 -30 44 -30 11 0 -4 28 -32 62 -100 119
-46 371 98 452 100 57 157 57 315 4z m395 -262 c0 -11 -13 -15 -28 -9 -16 6
-34 -3 -40 -20 -15 -37 4 -72 29 -56 11 6 19 -2 19 -18 0 -27 -108 -58 -130
-37 -5 5 9 35 31 65 22 31 39 64 37 73 -6 35 4 42 42 32 22 -6 40 -20 40 -30z
m-866 -366 c68 -16 318 -92 556 -170 585 -190 964 -244 1221 -175 84 22 94 21
113 -13 14 -25 25 -30 35 -14 20 33 71 8 102 -50 21 -39 40 -49 87 -44 53 5
64 -3 89 -69 29 -77 17 -129 -18 -74 -15 24 -18 23 -19 -6 0 -19 -9 -35 -20
-35 -11 0 -18 -11 -15 -25 3 -14 -8 -22 -23 -19 -15 3 -42 0 -60 -8 -18 -8
-48 -16 -67 -19 -19 -2 -42 -6 -50 -10 -8 -3 -24 -7 -35 -9 -11 -2 -54 -10
-94 -19 -45 -9 -101 -6 -139 7 -49 17 -68 17 -79 -2 -33 -53 -642 144 -1338
434 -359 150 -567 225 -705 254 -108 23 -193 45 -189 48 3 4 91 12 195 19 103
6 192 15 197 20 17 18 134 8 256 -21z m-172 -326 c164 -84 298 -159 298 -166
0 -13 -308 72 -345 95 -12 8 -54 20 -93 29 -167 34 -252 65 -271 97 -8 12 -22
16 -32 10 -11 -6 -20 -4 -21 5 0 9 -4 33 -8 55 -19 101 93 72 472 -125z m2354
-415 c-20 -20 -136 -46 -136 -30 0 8 29 24 65 35 63 19 93 17 71 -5z"/>
<path d="M2520 3332 c0 -18 -14 -25 -40 -18 -22 6 -40 1 -40 -10 0 -22 -77
-56 -106 -47 -10 2 -11 -5 -4 -17 7 -11 4 -20 -7 -20 -21 0 -49 -60 -35 -75
10 -10 275 132 342 183 38 29 36 31 -35 31 -51 1 -75 -8 -75 -27z"/>
<path d="M2629 3197 c-214 -122 -266 -157 -234 -157 40 0 460 257 424 259 -6
1 -91 -45 -190 -102z"/>
<path d="M3440 3190 c-27 -16 -62 -29 -76 -29 -27 -1 -130 -102 -117 -115 12
-12 253 137 253 156 0 22 0 22 -60 -12z"/>
<path d="M2654 3106 c-64 -39 -112 -74 -108 -79 13 -13 114 37 114 56 0 9 11
17 25 18 30 0 106 55 93 67 -5 5 -61 -23 -124 -62z"/>
<path d="M3510 3068 c-187 -112 -214 -130 -203 -142 10 -10 353 189 353 205 0
20 -37 5 -150 -63z"/>
<path d="M3567 2997 c-46 -24 -109 -64 -140 -90 l-57 -47 60 13 c33 8 75 13
94 12 19 -1 40 15 46 35 7 21 29 43 49 50 36 11 74 70 45 70 -8 0 -52 -20 -97
-43z"/>
<path d="M4266 2274 c2 -22 -9 -44 -24 -49 -17 -6 -22 -1 -14 12 8 13 5 23 -7
23 -11 0 -21 -13 -21 -30 0 -18 -18 -30 -46 -30 -25 0 -57 -11 -70 -24 -19
-19 -24 -19 -24 0 0 13 -10 24 -21 24 -12 0 -15 -10 -7 -23 10 -17 -3 -20 -47
-11 -52 10 -59 7 -51 -24 8 -31 20 -35 82 -21 40 9 77 13 81 9 5 -5 27 5 50
21 23 16 71 29 106 29 49 0 68 11 78 45 8 25 23 51 34 57 10 7 -8 17 -42 22
-51 7 -61 3 -57 -30z"/>
<path d="M3362 2291 c21 -20 266 -48 293 -33 19 10 -16 21 -96 29 -146 15
-209 17 -197 4z"/>
<path d="M3420 2203 c0 -10 25 -14 55 -10 46 6 49 5 15 -10 -46 -21 45 -56
117 -45 21 3 32 -3 26 -13 -6 -10 20 -28 58 -40 40 -12 74 -14 80 -3 6 10 -11
18 -39 18 -27 0 -55 9 -61 19 -8 12 29 15 93 9 99 -10 103 -9 67 21 -25 20
-73 30 -131 28 -50 -2 -111 7 -134 20 -51 27 -146 31 -146 6z"/>
<path d="M3821 3648 c-1 -13 21 -62 48 -110 61 -111 146 -415 178 -637 32
-219 181 -308 170 -101 -3 43 -4 42 -12 -10 -9 -58 -126 369 -133 483 -1 24
-7 40 -14 36 -7 -4 -23 29 -36 73 -13 44 -40 99 -58 122 -89 110 -143 164
-143 144z"/>
<path d="M1262 2419 c-3 -50 56 -117 139 -160 44 -22 79 -33 79 -24 0 8 -40
36 -89 62 -53 29 -97 69 -109 100 -10 29 -20 39 -20 22z"/>
<path d="M4620 2405 c0 -8 14 -54 30 -101 68 -193 -40 -362 -270 -426 -170
-47 -520 -30 -790 40 -199 51 -279 62 -464 62 -238 0 -713 54 -1073 122 -120
22 -221 36 -226 32 -11 -11 364 -82 666 -127 119 -17 370 -38 557 -46 276 -12
378 -25 540 -69 724 -196 1259 32 1081 459 -27 64 -51 90 -51 54z"/>
<path d="M1500 2231 c0 -16 74 -43 160 -58 l70 -13 -70 27 c-112 43 -160 57
-160 44z"/>
</g>
</svg>
