<svg width="800" height="600" xmlns="http://www.w3.org/2000/svg">

 <g>
  <title>Layer 1</title>
  <g stroke="null" id="svg_2">
   <path stroke="null" d="m531.942,88.6873c39.89022,-21.32411 68.40894,-3.19987 81.48133,28.0956c21.24196,63.43306 36.43094,126.84699 43.00727,192.90187c1.23125,12.36772 3.48182,24.15944 14.88782,32.03508c5.01754,2.3018 8.51866,1.97324 12.98544,-1.53553c13.03861,24.33881 38.56293,24.55717 55.73191,41.17047c24.6784,23.87982 50.08513,45.79125 56.26802,84.91915c11.06009,69.99352 -28.22759,105.54369 -80.62578,115.90782c-70.83143,14.01019 -139.7367,1.62493 -207.37269,-23.07173c-17.04387,-6.22352 -33.78966,-3.52374 -50.64772,-3.87484c-85.14945,-1.77348 -168.86123,-16.4922 -252.60199,-33.75757c-47.2429,-9.74057 -93.98907,-20.44527 -138.80101,-40.05579c-24.40922,-10.68189 -51.14436,-19.08489 -59.90739,-56.17102c-4.23541,-17.92475 3.93631,-31.63172 5.67451,-48.65761c39.49221,62.77789 100.52396,70.97192 157.76096,87.01298c53.4649,14.98401 108.24007,21.96937 164.29581,32.12742c7.8844,-0.22283 13.9098,0.5163 21.74327,1.84766c6.61727,1.65359 11.26673,3.91367 18.252,3.31234c36.03651,1.30027 70.01261,6.47417 106.19709,5.43924c11.07863,0.28562 20.21081,-0.03524 31.17047,1.69252c33.66338,17.68427 68.17631,21.99076 103.85733,29.71589c24.53492,0.59854 47.20568,0.27994 71.62816,0.32476c10.01313,0.69041 17.90519,-1.73745 25.92309,-3.55513c17.96383,-4.07244 36.14389,-8.99127 41.3833,-33.09471c5.60131,-25.76836 -3.01263,-46.05944 -23.72636,-60.89088c-20.01183,-20.26727 -42.36683,-31.53869 -66.69013,-42.44725c-12.85209,-4.99242 -23.45499,-11.66403 -36.60273,-15.94877c-15.4272,-11.2386 -11.68539,-29.16034 -14.95366,-46.15958c-0.80856,-14.94371 0.07019,-27.99614 -1.90663,-42.75489c5.33169,-18.83593 1.91088,-33.38545 -9.65956,-47.54893c-8.93109,-32.34488 -9.57879,-65.7406 -25.30195,-95.74228c-8.06524,-28.14838 -28.97012,-40.60049 -43.45016,-61.2363z" fill="#F8F6F4"/>
   <path stroke="null" d="m62.44645,321.9072c14.15545,-8.58922 28.26199,-15.46654 43.71387,-12.89176c21.90023,3.64922 42.81205,-10.59613 66.7287,-3.72676c39.23679,-1.79308 73.61453,13.59924 108.23931,25.80918c57.01463,20.10528 112.53605,45.79109 170.12688,63.91712c36.16373,11.3821 72.68914,18.61121 112.09503,16.54983c19.92206,-0.31997 38.04729,0.47532 57.81315,-2.1406c7.23698,-1.56772 12.85827,-2.10288 19.84963,-4.43598c5.65153,-2.56962 9.82705,-4.22774 15.67577,-6.19782c2.76321,-0.47237 3.88663,-0.51773 6.70037,-0.43797c7.92535,0.80288 12.20515,4.62636 15.03062,13.23876c-2.82677,25.29404 -15.83909,39.84281 -33.54893,46.23443c-26.7243,9.64528 -52.25104,24.7624 -82.38391,27.27107c-3.69867,1.15124 -5.87174,1.4553 -9.72747,1.36475c-4.94085,-0.75431 -8.07541,-2.10536 -12.95543,-3.27862c-67.65655,-14.52928 -130.0125,-41.38403 -190.10771,-75.93937c-9.45018,-5.43398 -19.12363,-9.68189 -29.39783,-12.1393c-8.80195,-2.10531 -19.7711,-3.01844 -24.87012,-10.53802c-23.64139,-34.86388 -61.27866,-17.01867 -89.3298,-34.59205c-6.97277,-4.36828 -14.40985,1.29895 -21.89239,8.00491c-2.45551,1.61719 -3.48545,2.15793 -6.14141,3.23416c-6.03888,1.50904 -10.45598,1.25091 -16.45516,0.28931c-3.61759,-0.86651 -5.63926,-1.49276 -9.11135,-2.64548c-3.44284,-0.86488 -5.42307,-1.24491 -8.89584,-1.79756c-3.4639,-0.55776 -5.42513,-0.99879 -8.81825,-1.98694c-8.05051,-2.90592 -14.42302,-6.26762 -22.86701,-7.58285c-4.61295,-0.35116 -7.68054,-0.85492 -12.3071,-1.77533c-2.58094,-0.76026 -3.59846,-1.14908 -6.07005,-2.34247c-9.86727,-10.43093 -25.97196,-3.15283 -31.09356,-21.46466z" fill="#DDB288"/>
   <path stroke="null" d="m61.14407,320.08667c7.48335,16.86959 24.81749,3.30796 32.96363,17.66272c-9.79269,11.86742 -20.69434,7.73851 -31.09557,5.3765c9.81513,5.25639 22.21743,-0.48143 34.24608,6.37039c62.05819,31.93599 120.21874,68.58146 177.86099,106.41394c16.19481,10.62921 31.83752,22.4831 49.67279,29.31485c5.54478,2.12411 11.709,3.92531 12.08008,14.38458c-95.05681,-10.33553 -189.25799,-23.906 -277.88374,-67.16625c-20.22327,-9.87148 -40.45173,-22.93782 -44.78408,-55.13509c-0.60752,-1.88353 -1.12383,-3.29105 -0.7553,-3.92331c4.13014,-6.35348 6.6876,-12.66477 7.96091,-21.5137c0.74168,-1.54512 0.99155,-1.19813 0.82446,-1.31239c1.08674,-1.09751 2.27906,-2.17563 4.39363,-4.00517c11.65546,-9.24745 22.33582,-17.82476 34.51611,-26.46709z" fill="#B58151"/>
   <path stroke="null" d="m565.52225,418.30353c-59.44021,4.9841 -114.36276,-13.06149 -168.81809,-34.11389c-72.51901,-28.0357 -143.92145,-60.55126 -220.74606,-76.99922c-0.29677,-3.59369 0.48935,-5.83123 2.68258,-8.94159c5.34038,-5.65085 10.43004,-6.754 17.69085,-7.09752c59.5367,15.90267 118.50419,23.1272 177.99829,38.90039c57.41004,28.22429 113.01594,55.85859 175.77079,41.20883c8.19878,-1.91393 16.32611,-0.63051 25.89321,3.67998c7.76762,2.90998 12.96748,6.59207 17.43121,14.6968c1.39179,25.10971 -16.57849,20.24193 -27.90278,28.66622z" fill="#6E4F30"/>
   <path stroke="null" d="m677.67435,349.00069c-13.32109,-0.68503 -23.88131,-3.1907 -25.54165,-22.12767c-5.81006,-66.27065 -19.48558,-130.49157 -39.22953,-192.92342c-1.30158,-4.11553 -2.86637,-8.11111 0.56348,-13.84551c9.02521,3.0944 12.5038,12.80005 17.73896,22.86107c19.12358,25.8714 24.53819,57.08495 31.35767,86.97226c8.75402,38.36591 20.6206,76.47264 15.11108,119.06328z" fill="#A2A2A1"/>
   <path stroke="null" d="m677.2905,351.83829c-7.51435,-71.07512 -20.68368,-138.92814 -45.26259,-205.34534c7.19693,-1.70574 10.32517,3.03051 13.71355,11.17523c23.31837,56.05081 37.79957,114.62362 39.77057,179.52931c-1.36541,7.62583 2.88313,17.19072 -8.22153,14.6408z" fill="#E3E4E3"/>
   <path stroke="null" d="m198.19071,296.15475c-5.88971,0.75009 -10.34739,0.90945 -16.47407,1.14503c-12.50743,-19.07641 -14.09234,-33.73544 10.22559,-38.59622c4.14784,-0.82906 7.35179,-8.1886 12.4444,-13.24856c6.24735,-0.10257 11.05153,0.30538 17.34847,0.26202c2.43123,0.28504 3.39344,0.49982 5.72253,1.34299c7.98237,5.5437 11.28832,14.35044 18.64391,20.81244c3.1282,3.64837 4.79827,6.49472 7.30583,10.80779c1.86743,3.53722 2.6634,5.72692 3.26407,9.83239c-0.50028,2.87321 -1.0006,3.93079 -2.74919,6.05611c-18.93047,-0.56893 -36.60698,-7.86526 -55.73155,1.586z" fill="#ADB6BE"/>
   <path stroke="null" d="m210.99262,183.10244c-8.47866,-16.85221 -6.44248,-27.23894 10.99903,-27.14986c16.24149,0.08292 28.20949,-7.11659 36.09972,-26.04492c4.5923,-0.71469 7.66464,-1.43576 12.34796,-2.07381c5.92604,-0.1632 10.25785,-0.22978 16.28109,-0.31001c7.51332,-0.11084 13.27822,0.2665 20.251,4.0166c2.13356,2.23142 2.77279,3.37439 3.24212,6.54866c-1.70621,3.97382 -3.39043,6.20988 -5.56028,6.50736c-36.64636,5.02545 -63.46491,23.93055 -71.86974,69.42264c-0.44984,2.43487 -2.6256,4.18364 -5.94834,6.68936c-2.78131,0.76253 -3.95347,0.7306 -6.68393,-0.28389c-2.51334,-3.59854 -2.83148,-6.31808 -1.67177,-10.98806c0.84686,-1.84771 0.91432,-4.26387 1.31327,-5.37787c0.80686,-1.92999 1.21485,-2.74599 0.95844,-4.74757c-0.66441,-1.18554 -1.48251,-3.24206 -1.46226,-4.37703c-0.74141,-2.90497 -1.70859,-4.50282 -4.00158,-6.60344c-1.1198,-0.67513 -0.41082,-0.74493 -0.4118,-0.32661c-0.66633,-1.34447 -1.63257,-2.83796 -3.88292,-4.90155z" fill="#AABFCD"/>
   <path stroke="null" d="m530.48597,86.84686c19.82315,14.56969 39.12601,27.68597 48.27472,55.09106c1.31407,4.5819 0.9235,7.01966 -2.60929,9.72619c-11.49004,-1.86983 -16.69925,-11.32641 -24.17714,-20.55379c-15.24887,-23.30863 -35.91727,-28.19537 -57.17764,-30.86329c-11.58962,-1.45441 -23.39506,0.75162 -36.67471,-2.67582c-5.10838,-2.9085 -7.33924,-6.09799 -7.37925,-12.9495c1.39645,-3.09762 2.38495,-4.02503 5.02856,-3.86257c26.02168,-8.89476 49.02272,8.0548 74.71475,6.08772z" fill="#B59170"/>
   <path stroke="null" d="m270.38186,133.45995c-3.90576,0.18264 -6.56473,-0.71016 -10.03387,-2.98378c19.0443,-41.95491 41.1328,-79.35707 87.15337,-85.62126c2.49936,0.65501 3.21116,1.61339 4.20988,4.44356c0.05729,3.10331 -0.17237,4.33483 -1.33643,7.09567c-27.91787,15.28833 -51.46447,34.006 -67.00052,64.43195c-2.73279,5.35201 -6.91292,8.99327 -12.99243,12.63385z" fill="#C0AD96"/>
   <path stroke="null" d="m350.91684,52.04341c-1.4529,-2.31881 -1.49048,-3.35327 -1.57796,-5.9398c39.7725,-8.67072 74.33493,7.2014 107.44195,34.0001c-0.28172,1.82084 -1.20885,1.89633 -3.52858,2.0452c-19.86325,11.99949 -30.68731,-10.28432 -47.48283,-13.92127c-18.78269,-6.08424 -37.23269,-5.00011 -54.85258,-16.18424z" fill="#BCA184"/>
   <path stroke="null" d="m225.02265,248.69938c-6.84049,-0.48438 -13.95844,12.58712 -18.93347,-2.2673c1.73363,-8.09209 3.71722,-14.48972 7.04211,-21.67595c7.47757,-3.87674 9.70861,1.81015 13.26474,8.0568c1.59414,6.17548 1.40429,10.28991 -1.37338,15.88645z" fill="#C0AD96"/>
   <path stroke="null" d="m224.84199,233.5989c-3.54641,-1.4955 -5.81817,-4.72302 -9.2297,-8.79093c-0.98626,-1.72829 -0.83279,-2.61624 -0.25919,-4.77038c1.04427,-2.13017 1.66836,-2.99405 3.16713,-2.50409c1.71558,1.38329 2.55648,1.41269 4.65873,1.48075c4.23156,3.87379 4.3018,8.23343 1.66303,14.58465z" fill="#ADB6BE"/>
   <path stroke="null" d="m219.44853,217.00503c-0.05353,1.88237 -1.86667,1.92146 -2.77096,1.84392c-0.62087,-3.34552 -0.33744,-6.61351 1.29732,-10.57079c1.40998,1.82195 1.46857,4.33325 1.47364,8.72687z" fill="#D4E9EF"/>
   <path stroke="null" d="m219.90266,199.33667c0.65594,0.09229 1.12777,1.39572 0.94433,3.15356c-0.65536,0.45441 -1.12844,-1.94248 -0.94433,-3.15356z" fill="#D4E9EF"/>
   <path stroke="null" d="m214.6568,189.05187c0.94536,-0.32608 2.37998,0.74419 4.23348,3.28083c-0.96888,0.34942 -2.35655,-0.76748 -4.23348,-3.28083z" fill="#D4E9EF"/>
   <path stroke="null" d="m210.39201,183.67859c0.93802,-0.28283 2.2585,0.84987 4.03074,3.36317c-0.9149,0.27114 -2.28157,-0.83828 -4.03074,-3.36317z" fill="#D4E9EF"/>
   <path stroke="null" d="m337.98609,501.92911c-31.62282,-18.61458 -61.4372,-36.60991 -90.5959,-56.25268c-36.62293,-24.6709 -74.49108,-46.81132 -112.06216,-69.49349c-11.16728,-6.74183 -23.14281,-11.63221 -35.78422,-18.78968c-3.5749,-5.0392 -4.2622,-9.08778 -1.99989,-15.35086c4.4451,-1.85335 7.82272,-1.92715 12.86208,-1.62108c7.78908,6.27051 14.49733,10.23744 24.08123,8.60287c2.99113,-0.44867 4.62513,-0.32403 7.436,0.23511c3.15324,4.0706 5.72549,6.2113 10.85345,4.75194c2.05132,0.02692 2.85181,0.37976 4.92118,0.94954c5.45214,0.52036 9.63537,0.82374 15.28829,1.81526c6.86083,9.7824 13.9287,13.92332 24.86789,10.64196c8.94489,-1.2487 15.51647,0.9823 21.65963,8.80468c-0.12193,13.34491 8.19166,5.52111 12.96631,9.05496c2.23193,1.47722 3.03834,2.25081 4.89274,4.38846c39.22478,28.47025 80.1083,50.12229 116.57077,80.68931c5.91134,4.95555 13.95983,7.11332 15.7392,19.08194c-1.5411,7.00791 -4.65237,10.42677 -9.85173,13.97679c-7.66956,0.16799 -13.85147,-0.40004 -21.84486,-1.48502z" fill="#A26634"/>
   <path stroke="null" d="m367.13257,494.75326c-23.7407,-29.61796 -54.54635,-45.3881 -82.52242,-66.15529c-16.49333,-12.24339 -36.52048,-17.02094 -51.1522,-35.29647c8.09548,-8.45779 15.43114,-2.93321 23.0289,0.10067c17.48443,6.98168 33.30883,19.02932 53.29947,23.48768c4.92535,0.37565 8.20563,0.66918 13.12382,1.28304c2.73136,0.46436 3.81774,0.71274 6.494,1.52695c2.60472,1.08086 3.61947,1.5958 6.07073,3.0688c37.82878,26.84996 77.99283,42.2555 117.73971,58.82498c10.40863,4.33915 21.51167,6.99021 30.70782,18.29745c1.76046,4.12343 1.79818,6.67577 -0.35944,10.00781c-36.95509,3.75747 -72.26999,2.4797 -109.44046,-2.99384c-5.40784,-2.63968 -6.61275,-6.36913 -6.98993,-12.15178z" fill="#945C32"/>
   <path stroke="null" d="m604.02959,243.38804c7.91527,13.37788 29.46076,19.95167 10.94443,42.28811c-8.85853,15.32168 -5.74569,39.82443 -29.03261,38.84407c-5.88774,-28.63724 0.88077,-55.97669 -1.5617,-85.24113c8.9044,-12.71861 13.12234,-2.73482 19.64989,4.10895z" fill="#BEBDB6"/>
   <path stroke="null" d="m730.94332,434.01193c25.74516,16.88313 34.96124,36.00195 30.90698,63.70909c-4.04817,27.66564 -21.91062,37.24743 -42.41485,42.64069c-7.1817,1.88896 -14.46763,3.22974 -23.49132,4.59185c-2.40977,-1.25634 -3.03409,-2.28368 -3.7531,-5.19602c0.28033,-3.05753 0.65518,-4.23005 2.20739,-6.66113c11.42463,-6.80536 23.20176,-7.85736 33.88606,-16.93644c20.97834,-16.80011 23.36383,-34.01854 8.72889,-54.71514c-4.23116,-5.98378 -10.20463,-10.17654 -13.37843,-19.41988c-0.07906,-3.11084 0.13676,-4.36117 1.40886,-7.08593c2.15171,-1.4984 3.24709,-1.52215 5.89952,-0.92709z" fill="#CBB49B"/>
   <path stroke="null" d="m605.18195,242.6665c-7.07674,3.78897 -9.42837,-5.51968 -17.8802,-9.17222c-4.68417,-5.16015 -5.57135,-9.0834 -6.26124,-15.17033c0.68922,-23.7438 -10.68327,-42.926 -8.5648,-66.28993c2.39226,-2.92683 3.73285,-4.26024 5.78807,-6.93637c17.79974,27.81061 19.68886,62.59199 26.91817,97.56886z" fill="#C6A485"/>
   <path stroke="null" d="m585.51679,325.86959c18.7598,-4.99237 12.84958,-30.09639 27.04692,-38.34637c6.3296,13.49046 6.21676,28.05483 6.26178,44.77349c-6.25766,10.55946 -13.65594,14.97521 -24.96066,13.17354c-4.21194,-1.49492 -6.26205,-3.11163 -8.85122,-7.25403c-1.44546,-4.85114 -1.35211,-7.73019 0.50319,-12.34664z" fill="#BCA184"/>
   <path stroke="null" d="m590.49764,342.0365c8.95237,-3.2881 16.78669,-5.1552 26.33686,-7.26957c3.93528,13.12724 6.15458,26.50154 9.21537,41.19534c2.55993,3.13802 3.70176,5.36628 4.27649,9.99633c-0.36558,3.25571 -0.7355,4.51557 -2.27041,7.23538c-3.27688,2.57821 -5.47929,2.94885 -9.3334,1.82311c-10.23339,-18.12588 -26.92229,-29.44881 -28.2249,-52.98059z" fill="#785D47"/>
   <path stroke="null" d="m731.41085,433.15569c-0.06849,1.53137 -1.22637,1.58753 -4.11876,1.78039c-21.03814,7.18391 -34.10233,-8.25271 -49.71781,-19.62943c-3.30237,-6.95681 -6.68971,-10.64601 -13.24351,-11.93944c-3.11382,-2.58916 -3.66046,-5.28084 -1.95116,-10.02951c25.29026,7.24291 48.0219,19.55126 69.03123,39.818z" fill="#C6A485"/>
   <path stroke="null" d="m614.75344,542.89825c-33.88046,-4.12243 -67.11838,-9.048 -99.49448,-25.97496c-0.71171,-2.4169 -0.15038,-3.63463 1.92177,-5.92863c29.76103,-2.24433 55.09662,14.80564 84.57826,17.12756c5.29554,1.04567 8.53591,2.64774 12.36247,7.07987c1.17275,3.09577 1.32586,4.47733 0.63197,7.69616z" fill="#CBB49B"/>
   <path stroke="null" d="m662.25683,390.47107c1.0965,3.69905 0.95522,6.2682 0.73075,10.75775c-0.83526,1.94574 -1.58728,1.97098 -3.46753,2.02208c-11.62039,-0.97703 -22.15288,-1.85414 -30.591,-13.94344c-1.38548,-3.73292 -1.71311,-6.08761 -2.03922,-10.23401c12.59895,-2.55281 22.75556,6.23896 35.367,11.39764z" fill="#B59170"/>
   <path stroke="null" d="m615.97515,545.03969c-2.06865,-0.30427 -2.18682,-2.71965 -2.22566,-3.92852c25.32489,-15.25673 51.12223,-11.94844 78.74594,-2.21915c1.70724,1.65311 1.70827,3.74578 1.68574,4.78919c-25.39414,1.24986 -50.76575,1.45631 -78.20602,1.35848z" fill="#BCA184"/>
   <path stroke="null" d="m483.92759,511.66299c-1.22645,-2.70437 -0.54265,-4.39805 0.51076,-7.43498c12.27714,-10.45521 21.98203,-5.34321 30.81529,7.42997c-0.0331,2.24633 -0.65469,3.12417 -0.96118,3.59512c-9.68926,-0.54586 -19.07207,-1.56261 -30.36487,-3.59011z" fill="#CBB49B"/>
   <path stroke="null" d="m365.78718,493.46595c3.11216,3.10847 4.7769,6.47075 6.41995,11.3813c-3.93197,1.62551 -7.84234,1.70258 -12.80814,0.54127c-0.93269,-6.20656 0.31859,-10.27763 6.38819,-11.92258z" fill="#B58151"/>
   <path stroke="null" d="m326.81576,424.7875c-3.7828,0.67682 -6.86652,0.09556 -11.41012,-1.17821c-27.66585,-12.25846 -52.44025,-28.06246 -81.04049,-37.73914c-4.81529,-1.0983 -8.13835,-0.73108 -12.2357,-3.23516c-6.47483,-7.76175 -13.46211,-10.42013 -22.21895,-12.77819c-10.30246,1.23174 -19.74929,4.67161 -21.37545,-12.28538c8.63809,-22.16908 22.18392,-20.30567 36.0771,-14.10891c18.69883,8.34037 36.99451,17.06851 57.60073,8.6517c6.96323,-2.84423 14.37164,-1.32619 14.11993,9.90551c-0.29802,13.30066 7.82545,16.61183 15.43974,18.37378c37.49787,8.67714 68.37682,37.28594 104.39994,48.69079c44.58241,14.1147 85.28733,43.41986 134.22731,47.1688c3.39563,3.19191 5.41613,5.06496 9.36377,5.92273c3.2651,0.09414 5.22517,0.09503 8.6552,0.09487c9.5878,2.59928 13.49369,8.70438 11.93714,20.56137c-11.1796,11.20847 -22.81572,5.38978 -35.5977,5.70696c-5.91121,-0.09198 -10.20584,-0.12027 -15.286,-3.78392c-4.50696,-4.88074 -6.78315,-10.11949 -13.0977,-12.07535c-9.4574,-3.39525 -18.60199,1.34852 -27.47001,-6.00691c-4.26587,-3.78444 -7.05193,-7.21394 -12.93778,-7.4787c-45.92242,-14.45959 -88.49226,-34.80893 -133.42511,-53.28133c-1.57443,-0.84128 -1.17409,-0.64057 -1.29795,-0.43012c-0.68873,-1.97793 -1.85709,-2.77596 -4.4279,-0.6952z" fill="#E6C097"/>
   <path stroke="null" d="m568.70098,505.45616c0.53401,-9.72656 -4.11231,-14.52802 -8.15792,-21.62891c0.18035,-7.22642 1.69475,-10.69464 7.94277,-9.67293c14.66975,2.39883 28.46702,0.97087 39.80175,-13.00734c8.58277,-10.58443 21.02085,-1.07749 32.62095,-7.90271c15.5141,-9.12786 26.04838,-20.04165 34.51974,-38.4671c17.98753,1.12506 31.00088,14.803 48.512,20.05345c1.61734,0.24216 1.69932,2.83754 1.71764,4.13592c-3.00972,8.12907 -0.55237,15.0931 -0.21417,21.95757c0.90321,18.32932 -6.48607,31.54127 -20.63006,36.23763c-29.95566,9.94633 -58.43702,33.96423 -92.19604,14.4902c-6.36517,-3.67171 -14.27027,3.78429 -21.77256,3.74167c-8.10542,-0.04594 -16.6253,1.36933 -22.1441,-9.93743z" fill="#E8C095"/>
   <path stroke="null" d="m615.74772,390.73604c3.52151,1.75942 5.41335,2.0648 8.73709,2.42586c3.67842,1.177 5.26396,3.06685 6.61925,7.71792c0.59166,4.77433 0.25475,7.46337 -1.3121,11.92974c-20.39165,11.58865 -41.04863,6.83465 -63.40452,7.28927c-0.09326,-18.84863 19.61651,-9.72872 24.69968,-25.69655c7.14353,-9.76143 14.90331,-9.2259 24.66062,-3.66623z" fill="#5F4025"/>
   <path stroke="null" d="m629.54746,404.34402c-1.54437,-3.55192 -2.10333,-5.72624 -3.14661,-9.51347c-0.12789,-2.4788 0.2285,-3.34479 1.0277,-5.55608c9.95893,2.874 19.47509,7.09325 29.97726,12.6575c-2.43244,3.03667 -5.85096,4.7284 -10.66678,6.53976c-6.42712,-0.17021 -11.66124,0.99853 -17.19156,-4.1277z" fill="#C6A485"/>
   <path stroke="null" d="m178.41051,356.22374c3.46327,9.7667 12.25675,7.12365 18.7422,12.33142c-10.69859,11.09141 -20.03096,11.58491 -23.30161,-9.65444c1.48389,-1.71059 2.36309,-1.98462 4.55942,-2.67698z" fill="#945C32"/>
   <path stroke="null" d="m628.30788,404.91975c5.16984,-0.97076 10.08547,0.01191 16.01738,2.33299c-2.27073,6.95413 -7.43125,6.69558 -13.79897,7.32551c-1.79746,-2.5043 -2.135,-5.10473 -2.21841,-9.6585z" fill="#B59170"/>
   <path stroke="null" d="m550.27674,481.02174c-3.2285,6.92526 -6.06006,5.77612 -8.08728,-2.38782c2.33165,-0.64194 4.81345,0.24922 8.08728,2.38782z" fill="#E8C095"/>
   <path stroke="null" d="m198.44376,297.59088c15.65288,-22.54568 34.46289,-15.17102 56.77551,-4.73108c15.68159,4.89539 28.61798,2.75863 42.81877,4.58822c19.17367,3.60981 34.50231,-7.12523 52.50695,-10.77492c18.68737,8.28806 22.22509,-6.88701 27.75683,-21.77504c3.30944,-4.33752 6.07449,-6.46158 10.7699,-8.76106c8.54007,-2.54544 15.56221,-2.26619 24.30946,-2.24391c4.05435,0.21377 6.34989,0.49402 10.29234,1.40294c11.00562,4.23464 14.85735,12.88634 16.71099,23.49432c2.11981,12.13182 7.07782,22.0987 18.01929,29.47125c2.45412,1.94854 3.38291,2.85761 5.43485,5.49424c4.61908,10.07392 7.07947,18.51169 1.18712,28.97138c-30.12571,11.70433 -57.77557,3.41369 -87.31531,-5.10078c-60.41393,-13.81427 -119.70489,-22.00583 -179.26672,-40.03556z" fill="#DAAD83"/>
   <path stroke="null" d="m376.37996,338.35752c28.29814,-0.75742 57.11967,0.19054 88.03844,0.69246c3.8861,-1.96745 5.8304,-3.11753 9.57987,-4.02703c13.73702,1.09572 22.57283,11.5012 35.01764,16.52829c5.58201,3.8622 9.3433,8.10058 16.38116,7.64559c5.84872,-0.02887 10.14608,-0.06796 16.17049,-0.20118c16.92897,-1.32729 34.86018,-9.66845 37.33469,21.24873c-14.80978,-4.12575 -28.34003,0.11779 -42.35428,1.33841c-41.70108,3.63194 -82.94954,-0.17848 -120.41033,-25.72811c-12.23821,-8.34695 -28.44547,-2.70342 -39.75767,-17.49715z" fill="#8C6E4D"/>
   <path stroke="null" d="m579.09236,382.81031c-5.16814,-26.45149 -20.67749,-19.18878 -36.10447,-17.50221c4.00221,-25.64035 24.39991,-24.91865 41.16922,-32.50634c2.72495,2.53043 3.87879,4.28816 6.24565,6.92979c3.87306,21.30936 25.78848,27.37522 27.0212,50.64449c-7.47712,1.94048 -14.90757,2.0669 -24.21163,2.17263c-5.55119,-3.00432 -9.22876,-5.9881 -14.11998,-9.73836z" fill="#A4ABB4"/>
   <path stroke="null" d="m223.69805,237.20145c0.12059,-5.94043 0.37194,-10.0105 0.68282,-16.11444c2.17522,-7.42313 4.68861,-12.64902 6.34411,-18.22707c14.03831,-47.30081 31.74399,-62.25421 76.27152,-62.39081c18.10583,-4.25355 30.85323,4.56952 43.84691,16.98206c1.65094,9.68241 -1.49532,16.14004 -6.52773,19.78815c-36.34269,26.34593 -71.03655,56.23803 -113.44154,72.97445c-2.53202,-0.22109 -3.41691,-0.14202 -5.63115,0.0334c-1.35762,-3.66086 -1.38593,-7.41812 -1.54495,-13.04574z" fill="#C4E6F1"/>
   <path stroke="null" d="m255.34994,292.78405c0.00573,0.03735 0.02939,-2.56456 0.01093,-3.86536c16.97166,-24.25421 40.97423,-35.22499 62.05681,-51.11391c15.61444,-11.76786 32.61983,-20.85685 48.37739,-32.47969c7.01479,-5.17416 14.60301,-9.02245 24.55136,-3.32461c10.02375,27.15771 -1.30547,45.77992 -16.08497,61.48073c-20.27653,21.54051 -43.98703,35.78165 -73.72239,37.71143c-15.43808,-0.28125 -28.92976,-1.54781 -43.66634,-7.28795c-1.58424,-1.14655 -1.52851,-1.15799 -1.52278,-1.12064z" fill="#C4E6F1"/>
   <path stroke="null" d="m229.52764,251.69101c39.24552,-30.36769 81.92108,-52.92496 119.34164,-88.59966c3.59788,-6.34885 7.78809,-7.23959 13.98532,-6.68204c2.66049,0.84534 3.68864,1.33551 6.08761,2.93795c6.02924,6.75927 11.0217,12.22064 8.74376,23.04402c-41.61023,34.83237 -85.80292,61.31748 -130.19312,90.74643c-11.57152,-1.31866 -14.54356,-10.57748 -17.96522,-21.44669z" fill="#F6FDFD"/>
   <path stroke="null" d="m390.42787,201.01839c-33.36388,12.37161 -59.58611,36.84913 -88.39062,55.46739c-14.80696,9.57068 -29.05648,20.33417 -45.12636,30.84538c-3.00658,-0.25813 -4.24137,-1.17958 -5.88258,-3.5623c-2.39194,-15.35529 8.55051,-17.94608 15.26831,-22.76129c35.85303,-25.69919 72.57702,-49.68721 110.29932,-75.60865c10.38968,-1.29885 14.95555,3.35732 13.83194,15.61947z" fill="#E9FAFD"/>
   <path stroke="null" d="m377.13383,185.07315c-30.6547,31.05114 -66.68427,49.68458 -99.80585,73.82068c-8.71894,6.35354 -16.93295,13.66551 -26.14411,22.16392c-2.18517,-0.58732 -3.60505,-2.80119 -5.16846,-6.4109c38.45457,-38.98841 84.5487,-62.08864 128.54769,-92.52602c2.10669,0.45167 2.62309,1.11579 2.57072,2.95233z" fill="#D4E9EF"/>
   <path stroke="null" d="m349.48473,51.94205c18.65973,-1.65722 36.61581,3.16905 56.26301,8.97157c6.96977,6.46432 12.83574,11.86131 15.38935,20.47856c10.53921,35.56377 32.21058,56.19568 62.40527,67.182c12.51831,4.55477 28.80343,8.41349 24.10596,33.75046c-23.58651,12.30387 -47.94476,15.15542 -71.09021,23.72468c-14.85458,5.49961 -28.88384,-2.11864 -40.62222,-14.33169c-8.79039,-9.14583 -15.61059,-20.87834 -27.63629,-28.87672c-1.42378,-1.23669 -1.37029,-1.646 -1.29284,-1.46005c-17.05641,-12.14615 -36.46395,-17.3102 -56.64023,-25.36178c-7.48953,-1.39293 -13.68582,-1.55213 -21.73534,-1.88037c-8.07246,-10.64248 -2.10933,-18.17276 2.84953,-25.66073c14.81547,-22.37184 32.41149,-40.59838 56.73416,-51.64497c1.18135,-1.3431 1.25293,-3.70795 1.26986,-4.89096z" fill="#E6C197"/>
   <path stroke="null" d="m347.71687,55.58189c-11.21342,18.03316 -31.54344,25.62765 -43.73291,45.19287c-6.01182,9.64944 -14.10354,17.45712 -17.01157,31.42922c-4.90497,2.01923 -9.61543,2.27277 -16.08157,2.42891c17.26583,-35.30232 37.16173,-69.32808 76.82605,-79.051z" fill="#EDD1B2"/>
   <path stroke="null" d="m309.04509,136.23502c21.37052,-1.83928 40.47798,5.31429 57.42675,23.5756c-4.04736,1.74472 -8.70707,1.73318 -15.10893,1.73234c-13.30806,-9.73725 -26.57249,-14.55778 -41.34339,-19.64213c-1.0957,-2.28568 -1.04906,-3.25086 -0.97444,-5.66581z" fill="#BEBDB6"/>
   <path stroke="null" d="m507.26432,183.34839c0.77796,-25.95084 -18.21092,-25.84121 -29.53517,-29.93952c-32.27786,-11.68152 -53.34969,-34.1455 -62.36419,-72.52062c-1.32496,-5.64032 -4.84203,-10.56852 -7.59753,-17.7046c14.94117,1.04509 24.9491,18.06382 42.47577,19.03938c2.47464,2.94922 3.33283,5.89908 5.2993,9.75611c23.51121,18.25631 47.7615,27.41926 74.92336,25.10229c8.30082,-0.70806 16.30971,1.8722 23.91491,10.58912c6.85594,7.48281 12.34101,13.63838 18.48646,21.28202c5.42056,22.7497 14.77309,42.6822 14.08141,67.71763c-4.08691,6.85488 -8.58241,5.36302 -11.75805,1.57352c-11.37339,-13.57211 -25.95364,-19.22001 -42.24633,-24.91354c-5.40744,-3.02213 -8.94323,-6.85056 -15.2503,-6.5799c-4.22533,0.07812 -6.94666,-0.55323 -10.42964,-3.40189z" fill="#E3B58A"/>
   <path stroke="null" d="m555.48453,127.1829c-14.7455,-3.41416 -30.14036,-3.30112 -45.60478,-3.18196c-20.82474,0.16051 -39.0921,-6.83044 -52.44724,-29.56571c25.52365,-1.90002 52.1011,-5.57663 76.87779,9.68257c8.52341,5.24934 17.63405,9.11006 21.17423,23.06509z" fill="#D19A69"/>
   <path stroke="null" d="m231.59446,383.7128c30.2243,4.09456 55.99773,19.49984 81.90218,37.53243c-28.11999,1.29258 -49.83781,-22.97238 -78.45118,-29.42247c-1.65577,-0.45262 -1.98498,-2.45752 -2.31696,-3.40094c-0.95576,-1.81368 -1.57949,-2.68388 -1.13404,-4.70901z" fill="#C6A485"/>
   <path stroke="null" d="m231.2309,382.35548c1.43274,0.2025 1.31578,2.66402 1.24066,3.89344c-4.99223,0.85118 -9.47764,6.24238 -14.66966,2.60997c-4.80064,-3.35848 -4.42655,-5.60223 2.18785,-7.47254c4.12172,-0.02049 6.96507,0.37302 11.24115,0.96913z" fill="#945C32"/>
   <path stroke="null" d="m331.25705,426.91936c36.41499,2.01233 69.75334,19.16849 103.51532,34.60075c10.36737,4.73893 20.42113,10.61093 33.72704,10.42703c4.22771,2.76711 6.63067,5.55514 9.96775,9.34838c8.52498,10.47955 17.9378,-2.23021 26.75525,5.15583c3.89604,5.75663 8.88173,6.2742 13.44016,10.64359c3.44701,5.66302 7.3362,6.24117 12.92156,6.3066c18.67482,4.69821 35.80608,9.57263 53.05547,13.84109c7.98618,1.9763 16.09873,3.76527 20.17269,15.53645c-29.89349,1.22152 -57.12559,-13.36677 -87.77755,-18.86359c-9.70144,-7.60229 -19.12959,-9.95187 -30.57841,-11.03257c-52.96906,-24.03559 -106.7973,-40.90287 -155.19929,-75.96355z" fill="#EDD1B2"/>
   <path stroke="null" d="m327.39143,426.42729c-0.14908,-2.00095 0.24924,-5.29395 3.40262,-1.86551c-0.49208,1.50329 -1.31,1.87531 -3.40262,1.86551z" fill="#EDD1B2"/>
   <path stroke="null" d="m585.89464,332.00398c-14.61989,10.8502 -29.07328,20.12999 -44.04509,31.04856c-4.86936,1.72881 -9.22038,1.81889 -15.18176,1.5644c-5.74748,-2.85508 -10.51887,-3.29332 -15.97137,-6.31972c-13.06527,-3.22589 -22.26039,-11.8768 -33.52891,-19.81054c-7.50064,-5.29074 -7.28316,-12.20552 -6.2857,-21.21791c4.2024,-12.18102 11.83066,-17.53182 19.52607,-22.75171c29.31867,-19.8873 57.91336,-41.2064 88.88104,-61.54005c2.70914,-0.53216 3.81895,-0.51894 6.36732,0.47964c1.43861,0.98536 1.40635,1.06664 1.44143,1.07228c7.52116,28.44971 4.99752,56.80243 -0.50717,87.35044c-0.16359,4.33315 -0.34649,6.44362 -0.69585,10.1246z" fill="#C2E6F1"/>
   <path stroke="null" d="m605.90105,535.02582c-15.88689,-15.60246 -36.10872,-11.19361 -52.65272,-20.23851c-5.72231,-3.12854 -12.67219,-3.7256 -19.16327,-9.85678c9.73817,-8.85741 20.45768,2.39794 33.01439,-1.46874c2.35118,0.62061 2.86162,1.26182 3.40625,1.85988c17.03679,18.70845 35.21922,-16.26832 56.56708,4.22205c12.60705,12.10069 38.17375,0.2133 56.00328,-12.25672c3.6636,-2.5624 8.39897,-3.16378 12.71703,-4.24586c16.17376,-4.05353 28.80612,-10.98284 22.09661,-35.02723c-1.87026,-6.70232 0.37288,-11.95492 6.40163,-16.87565c11.50706,9.27373 24.11716,17.71424 26.80018,34.35426c2.98544,18.51596 3.806,37.47669 -18.80043,43.88291c-12.71824,5.48897 -23.95948,10.16896 -36.74079,14.87807c-1.1594,1.35469 -1.19855,3.82401 -1.27313,5.0578c-25.50676,1.07238 -50.93898,0.91097 -78.46883,0.67028c-4.25915,-1.64274 -6.42076,-3.20635 -9.90728,-4.95576z" fill="#ECC9A2"/>
   <path stroke="null" d="m696.13783,535.47965c7.25534,-10.52322 17.88387,-16.67094 32.68604,-16.10938c-6.23288,13.60667 -18.76536,14.2837 -32.68604,16.10938z" fill="#EDD1B2"/>
   <path stroke="null" d="m587.12575,232.49913c-0.79821,2.00917 -1.5656,2.07549 -3.48715,2.12264c-3.14245,-0.17705 -5.0291,-0.77701 -8.04356,-2.77691c-5.02578,-4.48391 -8.36555,-8.69827 -13.9735,-12.26483c-7.42803,-4.7315 -13.62096,-8.48397 -21.75523,-11.55219c-18.76562,-5.3352 -35.85572,-10.05875 -54.04948,-6.00085c-39.58655,8.82928 -47.11945,21.18046 -38.9251,69.52636c3.00595,10.1109 7.95554,16.74453 12.49525,25.89331c1.48358,5.70058 1.27667,9.50568 -1.26986,14.73557c-16.14496,-1.60417 -19.82593,-16.30266 -23.22882,-30.42305c-1.59382,-6.61361 -0.66992,-14.06197 -7.64461,-19.73953c-10.10966,-8.9605 -5.26293,-22.20358 -11.13118,-32.50666c-10.42381,-0.19438 -10.96853,10.45969 -16.22989,17.98817c-1.77462,3.34078 -2.91269,5.14803 -5.18342,8.0264c-1.76924,1.87294 -2.49282,2.59933 -4.31591,4.39557c-3.17456,2.47938 -5.24953,3.88896 -8.41174,5.89549c-8.8342,9.46148 -15.53099,19.85669 -27.39121,25.49527c-18.61811,3.47295 -34.00576,16.61958 -53.39242,13.34854c-1.88871,-2.12506 -2.68401,-3.00654 -2.2568,-5.17232c30.75181,-4.60887 54.34204,-22.84626 75.40397,-45.11011c11.06838,-11.70001 17.4313,-28.28656 15.28412,-49.44231c-0.32275,-10.17939 -3.20238,-15.79268 -11.55714,-18.33127c-1.49702,-0.3608 -1.54011,-2.54786 -1.7244,-3.62298c0.18729,-9.22184 -7.29911,-11.52212 -9.3588,-19.65793c14.09453,-1.43002 22.45596,10.2525 31.0717,20.93998c13.1489,16.31067 28.56073,20.31315 46.17426,12.71871c18.86417,-8.1336 38.17594,-13.46933 60.1736,-14.79694c5.21168,-0.03777 8.51553,-0.00342 13.47295,0.0137c4.30852,0.05078 6.74024,0.89812 9.82866,3.84613c22.87574,2.89591 41.08617,13.80906 57.7344,32.54838c1.59642,4.16373 1.65931,8.06228 1.6913,13.90367z" fill="#BEBDB6"/>
   <path stroke="null" d="m519.38279,496.41069c-4.81426,1.47901 -10.47734,2.70611 -12.96824,-6.84508c4.83101,-1.55192 10.5315,-2.88343 12.96824,6.84508z" fill="#ECC9A2"/>
   <path stroke="null" d="m479.1506,480.66795c-3.83136,1.31128 -7.33508,0.0275 -8.63419,-7.03588c3.85711,-1.3658 7.35268,-0.06864 8.63419,7.03588z" fill="#ECC9A2"/>
   <path stroke="null" d="m458.02233,314.14282c-1.07478,-4.10426 -1.25118,-7.82491 -1.6048,-13.39948c2.46173,-13.24961 10.9933,-17.81043 18.56843,-22.61074c29.90706,-18.95193 57.97231,-41.40173 88.22631,-63.2618c5.47347,3.114 9.63093,7.30323 14.46598,12.91958c-25.86871,29.77247 -59.26188,45.44409 -88.84194,68.18258c-6.78736,5.21741 -14.42302,8.93253 -20.63153,18.20405c-2.30181,1.56656 -3.34488,1.92104 -5.95063,1.7355c-1.5626,-0.53996 -3.33345,-1.38608 -4.23183,-1.76969z" fill="#D4E9EF"/>
   <path stroke="null" d="m391.24986,261.06868c-1.88625,-0.97398 -1.80629,-1.87215 -1.59476,-4.11622c0.87951,-2.13723 1.62751,-2.92868 3.33713,-5.08824c5.82887,-13.23397 6.5176,-28.64467 21.97181,-32.90438c8.4073,12.21221 6.71529,25.12884 2.83842,40.17379c-8.98951,2.03198 -16.78799,2.02144 -26.5526,1.93505z" fill="#E8C095"/>
   <path stroke="null" d="m355.02687,292.68469c3.11902,-13.29038 12.96994,-19.53324 24.29706,-26.07816c0.31599,4.82374 -2.06798,9.86679 -1.97776,14.84799c0.41216,22.74991 -8.29437,21.37768 -22.31929,11.23017z" fill="#E6C097"/>
   <path stroke="null" d="m418.14573,261.18615c-1.53344,-12.51211 -1.53259,-25.01426 -1.53165,-39.85872c16.83498,5.54497 5.63012,22.82604 9.15238,37.46731c-1.98928,2.3166 -4.03786,2.35896 -7.62074,2.39141z" fill="#E6C197"/>
   <path stroke="null" d="m298.25964,298.11878c1.89404,0.08708 1.87478,2.69247 1.8548,3.99627c-14.37885,-1.17721 -30.0556,7.4767 -43.98399,-7.55588c12.85038,-0.0432 26.5427,1.71469 42.12919,3.55961z" fill="#ADB6BE"/>
   <path stroke="null" d="m460.85766,317.09394c0.61298,-1.92667 1.39206,-2.13196 3.36333,-2.47153c2.82189,-2.64495 4.91155,-3.40373 8.57197,-0.7462c1.64381,7.7992 2.17679,13.93412 2.86642,21.86128c-1.89713,2.38124 -3.95083,2.97029 -7.5742,3.21288c-3.4002,-6.94259 -5.23081,-13.53876 -7.22752,-21.85643z" fill="#BEBDB6"/>
   <path stroke="null" d="m510.04948,359.48071c4.6164,-3.70184 9.66072,-4.13934 14.37114,3.15946c-4.74017,4.37534 -9.63747,4.1012 -14.37114,-3.15946z" fill="#A4ABB4"/>
   <path stroke="null" d="m528.49199,185.56133c-2.33062,0.69931 -4.83881,-0.09609 -8.15703,-2.13449c3.0589,-6.67788 5.9659,-5.90324 8.15703,2.13449z" fill="#E6C197"/>
   <path stroke="null" d="m475.2654,314.37882c-3.24646,0.96371 -5.13123,0.76574 -8.43413,0.33857c0.49983,-20.26764 17.11549,-21.73948 27.49715,-29.68397c26.07441,-19.95351 53.75173,-37.01022 82.40684,-55.52223c2.96479,0.36844 4.04655,1.40816 5.30759,3.95855c-32.05541,32.53105 -71.41341,51.15279 -106.77746,80.90909z" fill="#E9FAFD"/>
   <path stroke="null" d="m445.40125,277.69837c-19.88739,-53.25099 -4.44837,-79.11106 48.62565,-84.76444c15.84303,-1.68751 30.88315,3.41906 47.22163,9.10005c2.87569,8.52064 -0.08981,14.10216 -4.37714,17.2523c-29.15409,21.42136 -56.32769,47.08535 -91.47013,58.41208z" fill="#C4E6F1"/>
   <path stroke="null" d="m443.94052,278.66171c32.92166,-23.87656 67.15238,-43.69526 97.71977,-73.52695c7.24428,1.30254 13.71727,4.15025 21.5291,7.82933c1.26269,10.17401 -4.226,14.03558 -10.29933,18.24151c-31.36802,21.72305 -62.52071,43.87627 -95.19904,66.78158c-7.20522,-3.7364 -11.80257,-9.43124 -13.7505,-19.32548z" fill="#F6FDFD"/>
   <path stroke="null" d="m393.04903,251.08784c0.53477,1.06153 -0.23253,2.39957 -2.32972,3.97061c-0.48827,-1.04436 0.29753,-2.35342 2.32972,-3.97061z" fill="#DAAD83"/>
  </g>
 </g>
</svg>